<?xml version="1.0" standalone="no"?>
<!DOCTYPE svg PUBLIC "-//W3C//DTD SVG 1.0//EN" "http://www.w3.org/TR/2001/REC-SVG-20010904/DTD/svg10.dtd">
<svg xmlns="http://www.w3.org/2000/svg" xmlns:xlink="http://www.w3.org/1999/xlink" id="body_1" width="102" height="77">

<g transform="matrix(0.76691735 0 0 0.77 0 0)">
	<g transform="matrix(0.12988281 0 0 0.13020834 0 0)">
		<g transform="matrix(11.2527485 0 0 11.2527485 -0 192.70331)">
            <path d="M14.05 8.112L7.024 4.056L0 8.112L0 4.056L7.025 0L14.051001 4.056L14.051001 8.112L14.05 8.112z" stroke="none" fill="#A435F0" fill-rule="nonzero" />
            <path d="M0 11.518L3.68 11.518L3.68 20.459C 3.68 22.769 5.405 23.895 7.025 23.895C 8.659 23.895 10.371 22.739 10.371 20.428001L10.371 20.428001L10.371 11.518002L14.051001 11.518002L14.051001 20.672C 14.051001 22.800001 13.382001 24.442001 12.044001 25.568C 10.705001 26.693 9.033001 27.241001 6.9940004 27.241001C 4.9570007 27.241001 3.2840004 26.694 1.9770002 25.568C 0.669 24.443 0 22.862 0 20.763L0 20.763L0 11.518001L0 11.518zM45.866 22.63C 44.752003 23.622 43.483 24.108 42.036003 24.108C 39.396004 24.108 37.626003 22.604 37.426003 20.275L37.426003 20.275L49.316 20.275C 49.316 20.275 49.396004 19.522999 49.396004 18.817C 49.396004 16.626999 48.696003 14.802 47.266003 13.311999C 45.868004 11.822 44.044003 11.091999 41.823 11.091999C 39.482002 11.091999 37.565002 11.821999 36.044003 13.311999C 34.554 14.801999 33.794003 16.748 33.794003 19.182L33.794003 19.182L33.794003 19.302C 33.794003 21.705 34.554 23.621 36.044003 25.051C 37.534004 26.480001 39.511 27.210001 41.914 27.210001C 44.708 27.210001 46.931 26.108002 48.599003 24.208L48.599003 24.208L45.866 22.630001zM38.872 15.167C 39.692 14.528 40.697002 14.194 41.822002 14.194C 42.886 14.194 43.768 14.528 44.529003 15.198C 45.255005 15.808 45.647003 16.557 45.681004 17.418L45.681004 17.418L37.52 17.418C 37.638 16.528 38.088 15.777999 38.873 15.167999zM82.91 29.276C 81.417 32.801 79.855 34 77.46 34L77.46 34L75.8 34L75.8 30.737999L77.142006 30.737999C 77.966 30.737999 78.732 30.428 79.462006 28.744L79.462006 28.744L80.19201 27.057999L73.89601 11.517999L77.63701 11.517999L82.10801 22.71L86.70101 11.517999L90.44101 11.517999L82.91101 29.275997zM28.377 5.649L28.377 12.906C 27.171001 11.826 25.295 11.183001 23.481 11.183001C 21.321001 11.183001 19.497002 11.943001 18.007 13.493C 16.547 15.014 15.816999 16.899 15.816999 19.18C 15.816999 21.462 16.546999 23.347 18.007 24.898C 19.497 26.419 21.322 27.18 23.480999 27.18C 25.970999 27.18 27.544998 26.201 28.376999 25.434L28.376999 25.434L28.376999 26.845L32.027 26.845L32.027 5.65L28.377 5.65zM27.282001 22.527C 26.400002 23.409 25.275002 23.866001 23.967001 23.866001C 22.659 23.866001 21.595001 23.409 20.713001 22.527C 19.863 21.645 19.436 20.52 19.436 19.182001C 19.436 17.843 19.862001 16.718 20.713001 15.836001C 21.595001 14.954001 22.659 14.498001 23.967001 14.498001C 25.275002 14.498001 26.400002 14.954001 27.282001 15.836001C 28.194002 16.718002 28.652002 17.843002 28.652002 19.182001C 28.652002 20.52 28.194002 21.645 27.282001 22.527zM68.222 11.214C 65.45 11.214 64.009 12.363999 63.022 13.472C 62.627 12.719 61.515 11.214001 58.917 11.214001C 56.721 11.214001 55.427 12.324 54.781 13.114L54.781 13.114L54.781 11.52L51.163 11.52L51.163 26.847L54.781 26.847L54.781 18.027C 54.781 15.959001 56.059 14.469 57.760998 14.469C 59.496 14.469 60.498997 15.776999 60.498997 17.875L60.498997 17.875L60.498997 26.846L64.118 26.846L64.118 18.026001C 64.118 15.928001 65.364 14.468 67.158 14.468C 68.892 14.468 69.895 15.776 69.895 17.873001L69.895 17.873001L69.895 26.845001L73.545 26.845001L73.545 17.357002C 73.545 13.361002 71.396996 11.215002 68.222 11.215002z" stroke="none" fill="#000000" fill-rule="nonzero" />
		</g>
	</g>
</g>
</svg>